<?xml version="1.0" encoding="UTF-8" standalone="no"?>
<!DOCTYPE svg PUBLIC "-//W3C//DTD SVG 1.1//EN" "http://www.w3.org/Graphics/SVG/1.1/DTD/svg11.dtd">
<svg width="100%" height="100%" viewBox="0 0 2000 2500" version="1.1" xmlns="http://www.w3.org/2000/svg" xmlns:xlink="http://www.w3.org/1999/xlink" xml:space="preserve" xmlns:serif="http://www.serif.com/" style="fill-rule:evenodd;clip-rule:evenodd;stroke-linejoin:round;stroke-miterlimit:2;">
    <g transform="matrix(34.925,0,0,34.125,160.3,318.5)">
        <path d="M44,22L44,18L24,4L4,18L4,22L8,22L8,40L4,40L4,44L44,44L44,40L40,40L40,22L44,22ZM32,36L28,36L28,28L24,34L20,28L20,36L16,36L16,22L20,22L24,28L28,22L32,22L32,36Z" style="fill:white;fill-rule:nonzero;stroke:rgb(210,0,65);stroke-width:0.58px;"/>
    </g>
</svg>
